<svg xmlns="http://www.w3.org/2000/svg" xml:space="preserve" id="head_svg" width="85mm" height="105mm" version="1.1" viewBox="0 0 85 105">
    <path id="head" d="M13 105V87A39 39 0 0 1 .5 58.7q0-15.7 11-26.8 10.8-11 26.4-11a37 37 0 0 1 36 27.8l5.4 21.6a4 4 0 0 1-.7 3.6 4 4 0 0 1-3.3 1.6H67v12.6q0 3.5-2.5 6a8 8 0 0 1-5.8 2.4h-8.3v8.4H42V88.2h16.6v-21h11.2l-4-16.3q-2.4-9.5-10.1-15.5-7.8-6-17.9-6a28 28 0 0 0-20.6 8.5 28 28 0 0 0-8.5 20.7q0 6.3 2.6 12 2.5 5.6 7.2 10l2.7 2.6V105Z"/>
    <path id="bulb" d="M69 32q-.9 0-1.6-.4t-1.2-1.2q-1.1 0-2-.8-.7-.9-.7-2v-5q-2-1.3-3.3-3.6T59 14.1Q59 10 62 7q2.8-3 7-3t7 3q3 3 3 7.1 0 2.7-1.2 5t-3.3 3.5v5q0 1.1-.8 2t-2 .8q-.4.7-1 1.2-.8.4-1.7.4m-2.8-4.4h5.6v-1.3h-5.6zm0-2.7h5.6v-1.3h-5.6zm-.2-4.1h2V17l-3-3 1.4-1.5L69 15l2.6-2.6 1.5 1.4-3 3.1v3.8h2q1.8-1 3-2.7t1.1-4q0-3-2-5.2-2.2-2-5.2-2t-5.1 2.1-2.1 5.2q0 2.3 1.1 4t3 2.7m3-7" style="transform-origin:69px 18px"/>
    <g id="layer4">
        <path id="gear" d="m20.7 64.2 4.9 6.9 4.7-2.5 1.5.8q.8.4 1.4.4l1 5.2 8.4-.7.2-5.2a7 7 0 0 0 2.7-2l5 1.7 3.5-7.5-4.5-2.8V57l-.2-1.7 4-3.5-4.9-6.9-4.7 2.5-1.5-.8q-.8-.4-1.4-.4l-1-5.2-8.4.7-.2 5.2a7 7 0 0 0-2.7 2l-5-1.7-3.5 7.5 4.5 2.8V59l.2 1.7zm11.1-2.6a6 6 0 0 1-1-4.7 6 6 0 0 1 2.6-4q2.1-1.5 4.7-1.1 2.5.5 4 2.6a6 6 0 0 1 1.1 4.7 6 6 0 0 1-2.6 4q-2.1 1.5-4.7 1.1-2.5-.5-4-2.6" style="transform-origin:37px 58px"/>
    </g>
</svg>
