<svg xmlns="http://www.w3.org/2000/svg" id="planetary_gears" width="121mm" height="121mm" version="1.1" viewBox="0 0 121 121">
    <g id="solarsystem" style="stroke-width:1;stroke-dasharray:none">
        <path id="path25" d="m52.2-1.8 1.7.5 1.7.6V.7l-1.7.6-1.7.5v1.5l1.6.7 1.6.8-.2 1.3-1.7.5-1.7.3-.3 1.5 1.6.8 1.5 1-.2 1.3-1.8.3-1.8.1-.3 1.5 1.4 1 1.5 1.1-.4 1.3-1.8.1h-1.8l-.5 1.4 1.4 1.1 1.3 1.3-.5 1.2h-1.8l-1.8-.3L47 23l1.2 1.2 1.2 1.4-.6 1.2-1.8-.2-1.7-.4-.8 1.3 1.1 1.3 1 1.5-.7 1.1-1.7-.4-1.7-.5-1 1.2 1 1.5 1 1.5-.9 1-1.7-.5-1.6-.7-1 1.1.8 1.6.8 1.6-1 1-1.6-.8-1.6-.8-1.1 1 .7 1.6.6 1.7-1 .9-1.6-1-1.5-1-1.2 1L31 44l.4 1.7-1 .8-1.6-1-1.3-1.2-1.3.8.4 1.7.2 1.8-1.2.6-1.4-1.2-1.2-1-1.4.6.2 1.8V51l-1.1.5-1.3-1.3-1-1.4-1.5.5v1.8l-.1 1.8-1.3.4-1.1-1.5-1-1.4-1.5.3v1.8l-.4 1.8-1.3.2-1-1.5-.8-1.6-1.5.3-.3 1.7-.5 1.7-1.3.2-.8-1.6-.7-1.7H1.8l-.5 2-.6 1.7H-.7l-.6-1.7-.5-1.7h-1.5l-.7 1.6-.8 1.6-1.3-.2-.5-1.7-.3-1.7-1.5-.3-.8 1.6-1 1.5-1.3-.2-.3-1.8-.1-1.8-1.5-.3-1 1.4-1.1 1.5-1.3-.4-.1-1.8v-1.8l-1.4-.5-1.1 1.4-1.3 1.3-1.2-.5v-1.8l.3-1.8-1.4-.6-1.2 1.2-1.4 1.2-1.2-.6.2-1.8.4-1.7-1.3-.8-1.3 1.1-1.5 1-1.1-.7.4-1.7.5-1.7-1.2-1-1.5 1-1.5 1-1-.9.5-1.7.7-1.6-1.1-1-1.6.8-1.6.8-1-1 .8-1.6.8-1.6-1-1.1-1.6.7-1.7.6-.9-1 1-1.6 1-1.5-1-1.2-1.7.5-1.7.4-.8-1 1-1.6 1.2-1.3-.8-1.3-1.7.4-1.8.2-.6-1.2 1.2-1.4L-47 23l-.6-1.4-1.8.2H-51l-.5-1.1 1.3-1.3 1.4-1-.5-1.5h-1.8l-1.8-.1-.4-1.3 1.5-1.1 1.4-1-.3-1.5h-1.8l-1.8-.4-.2-1.3 1.5-1 1.6-.8-.3-1.5-1.7-.3-1.7-.5-.2-1.3 1.6-.8 1.7-.7V1.8l-1.8-.5-1.7-.6V-.7l1.7-.6 1.7-.5v-1.5l-1.6-.7-1.6-.8.2-1.3 1.7-.5 1.7-.3.3-1.5-1.6-.8-1.5-1 .2-1.3 1.8-.3 1.8-.1.3-1.5-1.4-1-1.5-1.1.4-1.3 1.8-.1h1.8l.5-1.4-1.4-1.1-1.3-1.3.5-1.2h1.8l1.8.3.6-1.4-1.2-1.2-1.2-1.4.6-1.2 1.8.2 1.7.4.8-1.3-1.1-1.3-1-1.5.7-1.1 1.7.4 1.7.5 1-1.2-1-1.5-1-1.5.9-1 1.7.5 1.6.7 1-1.1-.8-1.6-.8-1.6 1-1 1.6.8 1.6.8 1.1-1-.7-1.6-.6-1.7 1-.9 1.6 1 1.5 1 1.2-1-.5-1.7-.4-1.7 1-.8 1.6 1 1.3 1.2 1.3-.8-.4-1.7-.2-1.8 1.2-.6 1.4 1.2L-23-47l1.4-.6-.2-1.8V-51l1.1-.5 1.3 1.3 1 1.4 1.5-.5v-1.8l.1-1.8 1.3-.4 1.1 1.5 1 1.4 1.5-.3v-1.8l.4-1.8 1.3-.2 1 1.5.8 1.6 1.5-.3.3-1.7.5-1.7 1.3-.2.8 1.6.7 1.7h1.5l.5-1.8.6-1.7H.7l.6 1.7.5 1.7h1.5l.7-1.6.8-1.6 1.3.2.5 1.7.3 1.7 1.5.3.8-1.6 1-1.5 1.3.2.3 1.8.1 1.8 1.5.3 1-1.4 1.1-1.5 1.3.4.1 1.8v1.8l1.4.5 1.1-1.4 1.3-1.3 1.2.5v1.8l-.3 1.8 1.4.6 1.2-1.2 1.4-1.2 1.2.6-.2 1.8-.4 1.7 1.3.8 1.3-1.1 1.5-1 1.1.7L31-44l-.5 1.7 1.2 1 1.5-1 1.5-1 1 .9-.5 1.7-.7 1.6 1.1 1 1.6-.8 1.6-.8 1 1-.8 1.6-.8 1.6 1 1.1 1.6-.7 1.7-.6.9 1-1 1.6-1 1.5 1 1.2L44-31l1.7-.4.8 1-1 1.6-1.2 1.3.8 1.3 1.7-.4 1.8-.2.6 1.2-1.2 1.4-1 1.2.6 1.4 1.8-.2H51l.5 1.1-1.3 1.3-1.4 1 .5 1.5h1.8l1.8.1.4 1.3-1.5 1.1-1.4 1 .3 1.5h1.8l1.8.4.2 1.3-1.5 1-1.6.8.3 1.5 1.7.3 1.7.5.2 1.3-1.6.8-1.7.7z" style="fill:none;stroke:#000;stroke-width:.1;stroke-dasharray:none"/>
        <circle id="path26" cx="0" cy="0" r="60.2" style="fill:none;stroke:#000;stroke-width:.1;stroke-dasharray:none"/>
    </g>
    <g id="sun">
        <path id="path36" d="M25.2-1.6q1.8.1 3.4 1C29 .7 28 1 27 1.3s-2.2 0-1.9 1.3c-.5 1.2 1.2 1 1.8 1.5 1 .4 1.7 1.3.9 2.1q-1.6.5-3.4.3c-.4 1-.8 2 .5 2.3.6.5 2 1.2 1.6 2-.2 1.2-1.6.6-2.5.7q-1.5-.8-2 1c0 .7 1.3 1.2 1.6 2 1 .6.2 2.2-.8 1.8q-1.5-.2-2.7-1c-.7.8-1.5 1.5-.4 2.4.3.7 1.3 1.8.6 2.4-.6 1-1.7 0-2.5-.3q-1.2-1.4-2.2.1c-.4.7.7 1.7.6 2.5.7 1-.6 2.2-1.4 1.4a9 9 0 0 1-2.1-2c-1 .5-2 .9-1.3 2 0 .8.6 2.3-.3 2.6-1 .7-1.6-.7-2.2-1.3q-.6-1.7-2.1-.8c-.6.5 0 1.9-.4 2.6.3 1.1-1.4 1.8-1.8.8q-.9-1.2-1.3-2.7c-1 0-2 0-1.9 1.4-.3.7-.3 2.3-1.3 2.2-1.1.3-1.1-1.2-1.5-2q.1-1.8-1.7-1.5c-.7.2-.6 1.7-1.3 2.2-.2 1.2-2 1.1-2 0q-.3-1.5-.1-2.9c-1-.4-2-.8-2.3.5-.5.6-1.2 2-2 1.6-1.2-.2-.6-1.6-.7-2.5q.8-1.5-1-2c-.7 0-1.2 1.3-2 1.6-.6 1-2.2.2-1.8-.8q.2-1.5 1-2.7c-.8-.7-1.5-1.5-2.4-.4-.7.3-1.8 1.3-2.4.6-1-.6 0-1.7.3-2.5q1.4-1.2-.1-2.2c-.7-.4-1.7.7-2.5.6-1 .7-2.2-.6-1.4-1.4q.8-1.2 2-2.1c-.5-1-.9-2-2-1.3-.8 0-2.3.6-2.6-.3-.7-1 .7-1.6 1.3-2.2q1.7-.6.8-2.1c-.5-.6-1.9 0-2.6-.4-1.1.3-1.8-1.4-.8-1.8q1.2-.9 2.7-1.3c0-1 0-2-1.4-1.9-.7-.3-2.3-.3-2.2-1.3-.3-1.1 1.2-1.1 2-1.5q1.8.1 1.5-1.7c-.2-.7-1.7-.6-2.2-1.3-1.2-.2-1.1-2 0-2q1.5-.3 2.9-.1c.4-1 .8-2-.5-2.3-.6-.5-2-1.2-1.6-2 .2-1.2 1.6-.6 2.5-.7q1.5.8 2-1c0-.7-1.3-1.2-1.6-2-1-.6-.2-2.2.8-1.8q1.5.2 2.7 1c.7-.8 1.5-1.5.4-2.4-.3-.7-1.3-1.8-.6-2.4.6-1 1.7 0 2.5.3q1.2 1.4 2.2-.1c.4-.7-.7-1.7-.6-2.5-.7-1 .6-2.2 1.4-1.4q1.2.8 2.1 2c1-.5 2-.9 1.3-2 0-.8-.6-2.3.3-2.6 1-.7 1.6.7 2.2 1.3q.6 1.7 2.1.8c.6-.5 0-1.9.4-2.6-.3-1.1 1.4-1.8 1.8-.8q.9 1.2 1.3 2.7c1 0 2 0 1.9-1.4.3-.7.3-2.3 1.3-2.2 1.1-.3 1.1 1.2 1.5 2q-.1 1.8 1.7 1.5c.7-.2.6-1.7 1.3-2.2.2-1.2 2-1.1 2 0q.3 1.5.1 2.9c1 .4 2 .8 2.3-.5.5-.6 1.2-2 2-1.6 1.2.2.6 1.6.7 2.5q-.8 1.5 1 2c.7 0 1.2-1.3 2-1.6.6-1 2.2-.2 1.8.8q-.2 1.5-1 2.7c.8.7 1.5 1.5 2.4.4.7-.3 1.8-1.3 2.4-.6 1 .6 0 1.7-.3 2.5q-1.4 1.2.1 2.2c.7.4 1.7-.7 2.5-.6 1-.7 2.2.6 1.4 1.4q-.8 1.2-2 2.1c.5 1 .9 2 2 1.3.8 0 2.3-.6 2.6.3.7 1-.7 1.6-1.3 2.2q-1.7.6-.8 2.1c.5.6 1.9 0 2.6.4 1.1-.3 1.8 1.4.8 1.8q-1.2.9-2.7 1.3z" style="fill:none;stroke:#000;stroke-width:.264583"/>
        <circle id="path37" cx="0" cy="0" r="2.6" style="fill:none;stroke:#000;stroke-width:.264583"/>
    </g>
    <g id="planets">
        <g id="planet3">
            <path id="path44" d="m11.1 3.5.9.3.7.4L14 5.6l-.5 1h-1.9l-.8-.2-.7-.5L9 7.5l.6.6.5.7.7 1.8-.8.7-1.8-.7-.6-.5-.6-.7-1.6 1 .4.8.2.8v2l-1.1.3L3.5 13l-.4-.8-.2-.8-2 .3.1 1v.7l-1 1.8h-1l-.8-1.8-.1-.9.1-.8-2-.4-.2.8-.4.7-1.4 1.3-1-.5v-1.9l.2-.8.5-.7L-7.6 9l-.6.6-.7.5-1.8.7-.7-.8.7-1.8.5-.6.7-.6-1-1.6-.8.4-.8.2h-2l-.3-1.1 1.3-1.4.7-.4.9-.2-.4-2-.8.2-.8-.2-1.8-.8v-1l1.8-.8.8-.1 1 .1.3-1.9-.8-.3-.7-.4-1.3-1.4.4-1h2l.7.2.8.5 1.1-1.6-.6-.6-.5-.7-.7-1.8.8-.7 1.8.7.6.5.5.7 1.7-1-.4-.8-.2-.8v-2l1.1-.3 1.4 1.3.4.8.2.8 2-.3-.2-1 .2-.7.8-1.8h1l.8 1.8v1.7l1.9.4.2-.8.5-.7 1.4-1.3 1 .5v1.9l-.2.8-.5.7L7.4-9l.6-.6.7-.5 1.7-.7.8.8-.7 1.8-.5.6-.7.6 1 1.6.8-.4.8-.2h1.9l.4 1.1L13-3.6l-.8.4-.8.2.3 2 .9-.2.8.2 1.7.8v1l-1.7.8-.9.1-.8-.1z" style="fill:none;stroke:#000;stroke-width:.264583"/>
            <circle id="path45" cx="0" cy="0" r="2.6" style="fill:none;stroke:#000;stroke-width:.264583"/>
        </g>
        <g id="planet2">
            <path id="path44-3" d="M11.5.2h.9l.8.2 1.6 1-.2 1L13 3h-1l-.8-.2-.6 1.9.8.3.6.5L13.1 7l-.5 1-1.9-.2-.7-.4-.7-.5L8 8.3l.6.6.4.7.5 1.8-.9.7L7 11l-.6-.5L6 10l-1.8.8.3.8.2.8-.3 1.9-1 .3L2.1 13l-.4-.7v-.9l-2 .1v.9l-.2.8-1 1.6-1-.2L-3 13v-1l.2-.8-1.8-.6-.4.8-.5.6-1.5 1.1-1-.5.3-1.9.3-.7.5-.7L-8.3 8l-.6.6-.8.4-1.8.5-.6-.9.9-1.6.5-.6.8-.4-.9-1.8-.8.3-.8.2-1.8-.3-.3-1 1.4-1.2.8-.4h.8v-2h-1l-.7-.2-1.6-1 .1-1 1.8-.6h.8l.8.2.7-1.8-.8-.4-.7-.5-1-1.5.5-1 1.8.3.8.3.7.5 1.2-1.4-.6-.7-.4-.7-.4-1.8.8-.6 1.7.9.6.5.4.8 1.7-.9-.3-.8-.1-.8.3-1.8 1-.3 1.2 1.4.3.8.1.8h2v-1l.2-.7 1-1.6 1 .1.6 1.8v.8l-.3.8 1.9.7.3-.8.5-.7L7-13l1 .5-.2 1.8-.4.8-.5.7L8.4-8l.6-.6.7-.4 1.8-.4.7.8L11-7l-.5.5-.7.5.8 1.7.8-.3.8-.1 1.9.3.3 1L13-2.2l-.7.3-.9.1z" style="fill:none;stroke:#000;stroke-width:.259567"/>
            <circle id="path45-9" cx="0" cy="0" r="2.6" style="fill:none;stroke:#000;stroke-width:.264583"/>
        </g>
        <g id="planet1">
            <path id="path44-2" d="M11.8-.3h.9l.8.2 1.6.9v1l-1.9.7h-.8l-.8-.2-.6 2 .8.2.7.5 1.2 1.5-.5 1-2-.1-.7-.3-.7-.5L8.5 8l.7.6.4.7.6 1.8-.9.8-1.7-.9-.6-.5-.5-.8-1.7 1 .3.8.2.8-.2 1.9-1 .3-1.3-1.4-.4-.8-.1-.8-2 .2v.9l-.2.8-.9 1.6h-1l-.7-1.9v-.8l.2-.8-2-.6-.2.8-.5.7-1.5 1.2-1-.5.1-2 .3-.7.5-.7L-8 8.5l-.6.7-.7.4-1.8.6-.8-.9.9-1.7.5-.6.8-.5-1-1.7-.8.3-.8.2-1.9-.2-.3-1 1.4-1.3.8-.4.8-.1-.2-2h-.9l-.8-.2-1.6-.9v-1l1.9-.7h.8l.8.2.6-2-.8-.2-.7-.5-1.2-1.5.5-1 2 .1.7.3.7.5L-8.5-8l-.7-.6-.4-.7-.6-1.8.9-.8 1.7.9.6.5.5.8 1.7-1-.3-.8-.2-.8.2-1.9 1-.3 1.3 1.4.4.8.1.8 2-.2v-.9l.2-.8.9-1.6h1l.7 1.9v.8l-.2.8 2 .6.2-.8.5-.7 1.5-1.2 1 .5-.1 2-.3.7-.5.7L8-8.5l.6-.7.7-.4 1.8-.6.8.9-.9 1.7-.5.6-.8.5 1 1.7.8-.3.8-.2 1.9.2.3 1-1.4 1.3-.8.4-.8.1z" style="fill:none;stroke:#000;stroke-width:.264583"/>
            <circle id="path45-93" cx="0" cy="0" r="2.6" style="fill:none;stroke:#000;stroke-width:.264583"/>
        </g>
    </g>
</svg>
