<svg
   width="121mm"
   height="121mm"
   viewBox="0 0 121 121"
   version="1.1"
   id="planetary_gears"
   xmlns="http://www.w3.org/2000/svg"
   xmlns:svg="http://www.w3.org/2000/svg">
  <defs
     id="defs1" />
  <g

     id="solarsystem"
     style="stroke-width:1;stroke-dasharray:none">
    <path
       style="fill:none;stroke:#000000;stroke-width:0.1;stroke-dasharray:none"
       d="m 52.1852,-1.79543 1.699,0.47265 1.6967,0.65836 v 1.32884 l -1.6967,0.65836 -1.699,0.47265 -0.0753,1.53283 1.6445,0.6369 1.624,0.8215 -0.1303,1.32244 -1.753,0.48889 -1.7372,0.30384 -0.2251,1.51807 1.5741,0.79503 1.5356,0.97667 -0.2592,1.3033 -1.7925,0.3148 -1.7586,0.1321 -0.3729,1.4887 1.4887,0.9454 1.4325,1.1226 -0.3858,1.2716 -1.8147,0.1375 -1.7631,-0.0409 -0.517,1.445 1.3889,1.0868 1.3155,1.2576 -0.5085,1.2276 -1.8195,-0.041 -1.7505,-0.2135 -0.6562,1.3873 1.2756,1.2178 1.186,1.3804 -0.6264,1.1719 -1.8067,-0.2191 -1.7212,-0.3841 -0.789,1.3163 1.1501,1.3369 1.0449,1.4901 -0.7382,1.1048 -1.7765,-0.3952 -1.6753,-0.5509 -0.9142,1.2327 1.0135,1.4432 0.8939,1.5852 -0.843,1.0272 -1.7292,-0.5674 -1.6132,-0.7125 -1.0306,1.1372 0.8672,1.5356 0.7341,1.6652 -0.9396,0.9396 -1.6652,-0.7341 -1.5356,-0.8672 -1.1372,1.0306 0.7125,1.6132 0.5674,1.7292 -1.0272,0.843 -1.5852,-0.8939 -1.4432,-1.0135 -1.2327,0.9142 0.5509,1.6753 0.3952,1.7765 -1.1048,0.7382 -1.4901,-1.0449 -1.3369,-1.1501 -1.3163,0.789 0.3841,1.7212 0.2191,1.8067 -1.1719,0.6264 -1.3804,-1.186 -1.2178,-1.2756 -1.3873,0.6562 0.2135,1.7505 0.041,1.8195 -1.2276,0.5085 -1.2576,-1.3155 -1.0868,-1.3889 -1.445,0.517 0.0409,1.7631 -0.1375,1.8147 -1.2716,0.3858 -1.1226,-1.4325 -0.9454,-1.4887 -1.4887,0.3729 -0.1321,1.7586 -0.3148,1.7925 -1.3033,0.2592 -0.97667,-1.5356 -0.79503,-1.5741 -1.51807,0.2251 -0.30384,1.7372 -0.48889,1.753 -1.32244,0.1303 -0.8215,-1.624 -0.6369,-1.6445 -1.53283,0.0753 -0.47265,1.699 -0.65836,1.6967 h -1.32884 l -0.65836,-1.6967 -0.47265,-1.699 -1.53283,-0.0753 -0.6369,1.6445 -0.8215,1.624 -1.32244,-0.1303 -0.48889,-1.753 -0.30384,-1.7372 -1.51807,-0.2251 -0.79503,1.5741 -0.97667,1.5356 -1.3033,-0.2592 -0.3148,-1.7925 -0.1321,-1.7586 -1.4887,-0.3729 -0.9454,1.4887 -1.1226,1.4325 -1.2716,-0.3858 -0.1375,-1.8147 0.0409,-1.7631 -1.445,-0.517 -1.0868,1.3889 -1.2576,1.3155 -1.2276,-0.5085 0.041,-1.8195 0.2135,-1.7505 -1.3873,-0.6562 -1.2178,1.2756 -1.3804,1.186 -1.1719,-0.6264 0.2191,-1.8067 0.3841,-1.7212 -1.3163,-0.789 -1.3369,1.1501 -1.4901,1.0449 -1.1048,-0.7382 0.3952,-1.7765 0.5509,-1.6753 -1.2327,-0.9142 -1.4432,1.0135 -1.5852,0.8939 -1.0272,-0.843 0.5674,-1.7292 0.7125,-1.6132 -1.1372,-1.0306 -1.5356,0.8672 -1.6652,0.7341 -0.9396,-0.9396 0.7341,-1.6652 0.8672,-1.5356 -1.0306,-1.1372 -1.6132,0.7125 -1.7292,0.5674 -0.843,-1.0272 0.8939,-1.5852 1.0135,-1.4432 -0.9142,-1.2327 -1.6753,0.5509 -1.7765,0.3952 -0.7382,-1.1048 1.0449,-1.4901 1.1501,-1.3369 -0.789,-1.3163 -1.7212,0.3841 -1.8067,0.2191 -0.6264,-1.1719 1.186,-1.3804 1.2756,-1.2178 -0.6562,-1.3873 -1.7505,0.2135 -1.8195,0.041 -0.5085,-1.2276 1.3155,-1.2576 1.3889,-1.0868 -0.517,-1.445 -1.7631,0.0409 -1.8147,-0.1375 -0.3858,-1.2716 1.4325,-1.1226 1.4887,-0.9454 -0.3729,-1.4887 -1.7586,-0.1321 -1.7925,-0.3148 -0.2592,-1.3033 1.5356,-0.97667 1.5741,-0.79503 -0.2251,-1.51807 -1.7372,-0.30384 -1.753,-0.48889 -0.1303,-1.32244 1.624,-0.8215 1.6445,-0.6369 -0.0753,-1.53283 -1.699,-0.47265 -1.6967,-0.65836 v -1.32884 l 1.6967,-0.65836 1.699,-0.47265 0.0753,-1.53283 -1.6445,-0.6369 -1.624,-0.8215 0.1303,-1.32244 1.753,-0.48889 1.7372,-0.30384 0.2251,-1.51807 -1.5741,-0.79503 -1.5356,-0.97667 0.2592,-1.3033 1.7925,-0.3148 1.7586,-0.1321 0.3729,-1.4887 -1.4887,-0.9454 -1.4325,-1.1226 0.3858,-1.2716 1.8147,-0.1375 1.7631,0.0409 0.517,-1.445 -1.3889,-1.0868 -1.3155,-1.2576 0.5085,-1.2276 1.8195,0.041 1.7505,0.2135 0.6562,-1.3873 -1.2756,-1.2178 -1.186,-1.3804 0.6264,-1.1719 1.8067,0.2191 1.7212,0.3841 0.789,-1.3163 -1.1501,-1.3369 -1.0449,-1.4901 0.7382,-1.1048 1.7765,0.3952 1.6753,0.5509 0.9142,-1.2327 -1.0135,-1.4432 -0.8939,-1.5852 0.843,-1.0272 1.7292,0.5674 1.6132,0.7125 1.0306,-1.1372 -0.8672,-1.5356 -0.7341,-1.6652 0.9396,-0.9396 1.6652,0.7341 1.5356,0.8672 1.1372,-1.0306 -0.7125,-1.6132 -0.5674,-1.7292 1.0272,-0.843 1.5852,0.8939 1.4432,1.0135 1.2327,-0.9142 -0.5509,-1.6753 -0.3952,-1.7765 1.1048,-0.7382 1.4901,1.0449 1.3369,1.1501 1.3163,-0.789 -0.3841,-1.7212 -0.2191,-1.8067 1.1719,-0.6264 1.3804,1.186 1.2178,1.2756 1.3873,-0.6562 -0.2135,-1.7505 -0.041,-1.8195 1.2276,-0.5085 1.2576,1.3155 1.0868,1.3889 1.445,-0.517 -0.0409,-1.7631 0.1375,-1.8147 1.2716,-0.3858 1.1226,1.4325 0.9454,1.4887 1.4887,-0.3729 0.1321,-1.7586 0.3148,-1.7925 1.3033,-0.2592 0.97667,1.5356 0.79503,1.5741 1.51807,-0.2251 0.30384,-1.7372 0.48889,-1.753 1.32244,-0.1303 0.8215,1.624 0.6369,1.6445 1.53283,-0.0753 0.47265,-1.699 0.65836,-1.6967 h 1.32884 l 0.65836,1.6967 0.47265,1.699 1.53283,0.0753 0.6369,-1.6445 0.8215,-1.624 1.32244,0.1303 0.48889,1.753 0.30384,1.7372 1.51807,0.2251 0.79503,-1.5741 0.97667,-1.5356 1.3033,0.2592 0.3148,1.7925 0.1321,1.7586 1.4887,0.3729 0.9454,-1.4887 1.1226,-1.4325 1.2716,0.3858 0.1375,1.8147 -0.0409,1.7631 1.445,0.517 1.0868,-1.3889 1.2576,-1.3155 1.2276,0.5085 -0.041,1.8195 -0.2135,1.7505 1.3873,0.6562 1.2178,-1.2756 1.3804,-1.186 1.1719,0.6264 -0.2191,1.8067 -0.3841,1.7212 1.3163,0.789 1.3369,-1.1501 1.4901,-1.0449 1.1048,0.7382 -0.3952,1.7765 -0.5509,1.6753 1.2327,0.9142 1.4432,-1.0135 1.5852,-0.8939 1.0272,0.843 -0.5674,1.7292 -0.7125,1.6132 1.1372,1.0306 1.5356,-0.8672 1.6652,-0.7341 0.9396,0.9396 -0.7341,1.6652 -0.8672,1.5356 1.0306,1.1372 1.6132,-0.7125 1.7292,-0.5674 0.843,1.0272 -0.8939,1.5852 -1.0135,1.4432 0.9142,1.2327 1.6753,-0.5509 1.7765,-0.3952 0.7382,1.1048 -1.0449,1.4901 -1.1501,1.3369 0.789,1.3163 1.7212,-0.3841 1.8067,-0.2191 0.6264,1.1719 -1.186,1.3804 -1.2756,1.2178 0.6562,1.3873 1.7505,-0.2135 1.8195,-0.041 0.5085,1.2276 -1.3155,1.2576 -1.3889,1.0868 0.517,1.445 1.7631,-0.0409 1.8147,0.1375 0.3858,1.2716 -1.4325,1.1226 -1.4887,0.9454 0.3729,1.4887 1.7586,0.1321 1.7925,0.3148 0.2592,1.3033 -1.5356,0.97667 -1.5741,0.79503 0.2251,1.51807 1.7372,0.30384 1.753,0.48889 0.1303,1.32244 -1.624,0.8215 -1.6445,0.6369 z"
       id="path25" />
    <circle
       style="fill:none;stroke:#000000;stroke-width:0.1;stroke-dasharray:none"
       id="path26"
       cx="7.6391509e-14"
       cy="7.1875665e-14"
       r="60.219433" />
  </g>
  <g

     id="sun">
    <path
       style="fill:none;stroke:#000000;stroke-width:0.264583"
       d="m 25.2141,-1.6157 c 1.198096,0.099979 2.326645,0.4889385 3.4137,0.98994 0.410622,1.28982707 -0.644617,1.59399156 -1.657384,1.9267149 -0.848355,0.245979 -2.171498,-0.013103 -1.851955,1.2862157 -0.488686,1.1918329 1.206435,0.9432837 1.811645,1.5464373 0.988452,0.3405652 1.688423,1.3000027 0.865743,2.0959395 -1.109686,0.2785245 -2.242674,0.3929905 -3.381449,0.2741426 -0.367459,0.9721038 -0.817691,1.9457113 0.512542,2.2876161 0.570585,0.5464942 1.976529,1.178443 1.574381,2.0369259 -0.155777,1.184813 -1.614202,0.605189 -2.45659,0.625368 -1.100532,-0.545903 -1.736773,-0.160153 -2.058502,0.97954 -0.07462,0.764878 1.331694,1.238581 1.585668,2.095776 0.976541,0.569087 0.241042,2.220326 -0.753921,1.765401 -0.977965,-0.116983 -1.878167,-0.51043 -2.750778,-0.942717 -0.711444,0.757458 -1.500129,1.484689 -0.401993,2.309631 0.317971,0.723237 1.375189,1.845077 0.675066,2.484296 -0.597332,1.035081 -1.722885,-0.05845 -2.508896,-0.362243 -0.807891,-0.925471 -1.543271,-0.812658 -2.27666,0.117223 -0.361942,0.678103 0.756358,1.653852 0.662837,2.542995 0.684392,0.899498 -0.626935,2.143677 -1.372127,1.342579 C 13.986725,23.303687 13.305498,22.59575 12.6648,21.8624 c -0.947224,0.42751 -1.953988,0.797727 -1.255151,1.980086 0.01703,0.789875 0.564314,2.230851 -0.327081,2.553491 C 10.134621,27.123588 9.513212,25.682495 8.903284,25.101102 8.5110522,23.936911 7.7885513,23.7597 6.7551151,24.338134 6.1612508,24.826186 6.8209791,26.155637 6.3943331,26.941355 6.6824176,28.034254 4.9947293,28.681829 4.6128942,27.656589 4.0041024,26.882329 3.6458179,25.967581 3.33438,25.0449 2.2955895,25.077338 1.2238754,25.033979 1.4170383,26.393824 1.1305008,27.13008 1.0847122,28.670854 0.13767654,28.6278 -1.0165687,28.937303 -1.0392491,27.368169 -1.3802305,26.597593 c 0.083106,-1.225687 -0.5164844,-1.665962 -1.6926753,-1.526951 -0.7354518,0.223605 -0.6346656,1.704263 -1.3294839,2.266872 -0.1520841,1.120023 -1.9590853,1.072453 -1.9195798,-0.02092 -0.2661844,-0.948305 -0.2471115,-1.93056 -0.1817205,-2.902196 -0.9721038,-0.367459 -1.9457113,-0.817691 -2.2876161,0.512542 -0.5464942,0.570585 -1.178443,1.976529 -2.0369259,1.574381 -1.184813,-0.155777 -0.605189,-1.614202 -0.625368,-2.45659 0.545903,-1.100532 0.160153,-1.736773 -0.97954,-2.058502 -0.764878,-0.07462 -1.238581,1.331694 -2.095776,1.585668 -0.569087,0.976541 -2.220326,0.241042 -1.765401,-0.753921 0.116983,-0.977965 0.51043,-1.878167 0.942717,-2.750778 -0.757458,-0.711444 -1.484689,-1.500129 -2.309631,-0.401993 -0.723237,0.317971 -1.845077,1.375189 -2.484296,0.675066 -1.035081,-0.597332 0.05845,-1.722885 0.362243,-2.508896 0.925471,-0.807891 0.812658,-1.543271 -0.117223,-2.27666 -0.678103,-0.361942 -1.653852,0.756358 -2.542995,0.662837 -0.899498,0.684392 -2.143677,-0.626935 -1.342579,-1.372127 0.482394,-0.858702 1.190331,-1.539929 1.923681,-2.180627 -0.42751,-0.947224 -0.797727,-1.953988 -1.980086,-1.255151 -0.789875,0.01703 -2.230851,0.564314 -2.553491,-0.327081 -0.727611,-0.947947 0.713482,-1.569356 1.294875,-2.179284 1.164191,-0.3922318 1.341402,-1.1147327 0.762968,-2.1481689 -0.488052,-0.5938643 -1.817503,0.065864 -2.603221,-0.360782 -1.092899,0.2880845 -1.740474,-1.3996038 -0.715234,-1.7814389 0.77426,-0.6087918 1.689008,-0.9670763 2.611689,-1.2785142 -0.03244,-1.0387905 0.01092,-2.1105046 -1.348924,-1.9173417 -0.736256,-0.2865375 -2.27703,-0.3323261 -2.233976,-1.27936176 -0.309503,-1.15424524 1.259631,-1.17692564 2.030207,-1.51790704 1.225687,0.083106 1.665962,-0.5164844 1.526951,-1.6926753 -0.223605,-0.7354518 -1.704263,-0.6346656 -2.266872,-1.3294839 -1.120023,-0.1520841 -1.072453,-1.9590853 0.02092,-1.9195798 0.948305,-0.2661844 1.93056,-0.2471115 2.902196,-0.1817205 0.367459,-0.9721038 0.817691,-1.9457113 -0.512542,-2.2876161 -0.570585,-0.5464942 -1.976529,-1.178443 -1.574381,-2.0369259 0.155777,-1.184813 1.614202,-0.605189 2.45659,-0.625368 1.100532,0.545903 1.736773,0.160153 2.058502,-0.97954 0.07462,-0.764878 -1.331694,-1.238581 -1.585668,-2.095776 -0.976541,-0.569087 -0.241042,-2.220326 0.753921,-1.765401 0.977965,0.116983 1.878167,0.51043 2.750778,0.942717 0.711444,-0.757458 1.500129,-1.484689 0.401993,-2.309631 -0.317971,-0.723237 -1.375189,-1.845077 -0.675066,-2.484296 0.597332,-1.035081 1.722885,0.05845 2.508896,0.362243 0.807891,0.925471 1.543271,0.812658 2.27666,-0.117223 0.361942,-0.678103 -0.756358,-1.653852 -0.662837,-2.542995 -0.684392,-0.899498 0.626935,-2.143677 1.372127,-1.342579 0.858702,0.482394 1.539929,1.190331 2.180627,1.923681 0.947224,-0.42751 1.953988,-0.797727 1.255151,-1.980086 -0.01703,-0.789875 -0.564314,-2.230851 0.327081,-2.553491 0.947947,-0.727611 1.569356,0.713482 2.179284,1.294875 0.3922318,1.164191 1.1147327,1.341402 2.1481689,0.762968 0.5938643,-0.488052 -0.065864,-1.817503 0.360782,-2.603221 -0.2880845,-1.092899 1.3996038,-1.740474 1.7814389,-0.715234 0.6087918,0.77426 0.9670763,1.689008 1.2785142,2.611689 1.0387905,-0.03244 2.1105046,0.01092 1.9173417,-1.348924 0.2865375,-0.736256 0.3323261,-2.27703 1.27936176,-2.233976 1.15424524,-0.309503 1.17692564,1.259631 1.51790704,2.030207 -0.083106,1.225687 0.5164844,1.665962 1.6926753,1.526951 0.7354518,-0.223605 0.6346656,-1.704263 1.3294839,-2.266872 0.1520841,-1.120023 1.9590853,-1.072453 1.9195798,0.02092 0.2661844,0.948305 0.2471115,1.93056 0.1817205,2.902196 0.9721038,0.367459 1.9457113,0.817691 2.2876161,-0.512542 0.5464942,-0.570585 1.178443,-1.976529 2.0369259,-1.574381 1.184813,0.155777 0.605189,1.614202 0.625368,2.45659 -0.545903,1.100532 -0.160153,1.736773 0.97954,2.058502 0.764878,0.07462 1.238581,-1.331694 2.095776,-1.585668 0.569087,-0.976541 2.220326,-0.241042 1.765401,0.753921 -0.116983,0.977965 -0.51043,1.878167 -0.942717,2.750778 0.757458,0.711444 1.484689,1.500129 2.309631,0.401993 0.723237,-0.317971 1.845077,-1.375189 2.484296,-0.675066 1.035081,0.597332 -0.05845,1.722885 -0.362243,2.508896 -0.925471,0.807891 -0.812658,1.543271 0.117223,2.27666 0.678103,0.361942 1.653852,-0.756358 2.542995,-0.662837 0.899498,-0.684392 2.143677,0.626935 1.342579,1.372127 -0.482394,0.858702 -1.190331,1.539929 -1.923681,2.180627 0.42751,0.947224 0.797727,1.953988 1.980086,1.255151 0.789875,-0.01703 2.230851,-0.564314 2.553491,0.327081 0.727611,0.947947 -0.713482,1.569356 -1.294875,2.179284 -1.164191,0.3922318 -1.341402,1.1147327 -0.762968,2.1481689 0.488052,0.5938643 1.817503,-0.065864 2.603221,0.360782 1.092899,-0.2880845 1.740474,1.3996038 0.715234,1.7814389 -0.77426,0.6087918 -1.689008,0.9670763 -2.611689,1.2785142 0.0564,0.5728933 0.1128,1.1457867 0.1692,1.71868 z"
       id="path36" />
    <circle
       style="fill:none;stroke:#000000;stroke-width:0.264583"
       id="path37"
       cx="0"
       cy="0"
       r="2.6458333" />
  </g>
  <g
     id="planets">
    <g

       id="planet3">
      <path
         style="fill:none;stroke:#000000;stroke-width:0.264583"
         d="M 11.149922,3.4959646 11.982483,3.754454 12.69759,4.1867522 13.983632,5.5824577 13.532599,6.608756 11.634785,6.6050845 10.832758,6.3705677 10.079343,5.9319841 8.9551119,7.5391392 9.625394,8.0965457 10.12065,8.7696113 10.774717,10.551223 9.9652684,11.326783 8.2132786,10.597105 7.5620104,10.073485 7.0337928,9.3799787 5.3800723,10.434514 5.786029,11.205985 5.9860303,12.017347 5.9085392,13.91362 4.863905,14.320365 3.5245052,12.97578 3.1231809,12.242806 2.9005588,11.399951 l -1.93140212,0.341387 0.0798302,0.868093 -0.12570368,0.826147 -0.79726271,1.722268 -1.12077461,-0.024 -0.7229229,-1.754802 -0.090291,-0.830746 0.1168635,-0.863893 -1.915026,-0.423768 -0.2584583,0.832571 -0.4322675,0.715108 -1.3956371,1.286028 -1.0262904,-0.451075 0.00361,-1.897853 0.2344878,-0.802038 0.4385515,-0.753416 -1.6071558,-1.1243048 -0.5573742,0.6702796 -0.6730365,0.4952452 -1.781555,0.654027 -0.775569,-0.809486 0.729609,-1.7520042 0.523589,-0.6512663 0.6934763,-0.5282075 -1.0545633,-1.6537874 -0.771443,0.4059416 -0.811339,0.1999807 -1.896235,-0.077551 -0.406768,-1.0446684 1.344515,-1.3393871 0.732946,-0.4013102 0.842832,-0.2226007 -0.341441,-1.9314535 -0.868072,0.079805 -0.826133,-0.1257311 -1.722256,-0.79733197 0.02396,-1.12079746 1.754743,-0.72288497 0.830726,-0.090267 0.863879,0.1168923 0.423709,-1.9150514 -0.832562,-0.2584893 -0.715106,-0.4322982 -1.286043,-1.3957055 0.451034,-1.0262985 1.897814,0.00367 0.802027,0.2345168 0.753414,0.4385837 1.1242322,-1.6071552 -0.6702822,-0.5574064 -0.495256,-0.6730657 -0.654067,-1.7816121 0.809445,-0.77556 1.7519906,0.729678 0.6512679,0.52362 0.528218,0.693506 1.6537205,-1.054535 -0.4059567,-0.771471 -0.2000013,-0.811362 0.077491,-1.896273 1.0446345,-0.406745 1.3393999,1.344585 0.4013244,0.732973 0.2226219,0.842856 1.9314023,-0.341388 -0.07983,-0.868093 0.1257029,-0.826146 0.7972622,-1.722268 1.1207747,0.024 0.7229238,1.754803 0.090291,0.830745 -0.1168635,0.863893 1.9150242,0.423778 0.2584585,-0.832572 0.4322673,-0.715107 1.3956371,-1.286028 1.0262905,0.451075 -0.00361,1.897853 -0.2344877,0.802036 -0.4385514,0.753417 1.6071558,1.1243045 0.5573742,-0.6702796 0.6730363,-0.4952449 1.7815551,-0.654027 0.775568,0.809487 -0.729609,1.7520038 -0.5235887,0.651266 -0.6934758,0.5282078 1.0545635,1.6537874 0.771443,-0.4059417 0.811338,-0.1999808 1.896235,0.07755 0.406768,1.0446687 -1.344515,1.3393871 -0.732946,0.4013103 -0.842831,0.2226009 0.34144,1.9314532 0.868072,-0.079805 0.826133,0.1257311 1.722256,0.79733199 -0.02396,1.12079746 -1.754743,0.72288495 -0.830726,0.090267 -0.863878,-0.1168923 z"
         id="path44" />
      <circle
         style="fill:none;stroke:#000000;stroke-width:0.264583"
         id="path45"
         cx="0"
         cy="0"
         r="2.6458333" />
    </g>
    <g

       id="planet2">
      <path
         style="fill:none;stroke:#000000;stroke-width:0.259567"
         d="m 11.541193,0.15595412 0.85514,0.0136197 0.792515,0.20965844 1.595836,0.95909974 -0.141471,1.0906418 -1.787725,0.5202089 -0.819779,5.258e-4 -0.830315,-0.2050054 -0.614999,1.8232337 0.784834,0.3398074 0.651963,0.4969878 1.107329,1.4967851 L 12.586438,7.8550009 10.735693,7.6514888 9.9780823,7.3382424 9.2894462,6.8311064 8.0234867,8.2801894 8.6185292,8.8944595 9.0306792,9.6031135 9.480912,11.409703 8.6096545,12.080872 6.9776904,11.184621 6.3976308,10.605315 5.955495,9.873255 l -1.7241448,0.854326 0.3146663,0.79522 0.1095917,0.812446 -0.2754107,1.841382 -1.0617839,0.286664 -1.1647575,-1.452546 -0.31421,-0.757175 -0.1283287,-0.845541 -1.91983649,0.129462 -0.0136186,0.855123 -0.20966114,0.7925 -0.95911537,1.595804 -1.0906626,-0.141469 -0.5202216,-1.787693 -5.242e-4,-0.819763 0.2050079,-0.8303 -1.8232692,-0.614989 -0.3398126,0.784818 -0.4969959,0.65195 -1.4968116,1.107305 -0.9535055,-0.548071 0.2035132,-1.850709 0.3132512,-0.7575959 0.5071444,-0.6886221 -1.4491125,-1.265938 -0.6142806,0.5950304 -0.7086663,0.412141 -1.8066219,0.4502214 -0.671183,-0.8712421 0.896264,-1.6319319 0.579316,-0.5800478 0.7320731,-0.4421262 -0.8543451,-1.7241135 -0.795235,0.314659 -0.81246,0.1095884 -1.841418,-0.2754085 -0.28667,-1.0617644 1.452572,-1.1647331 0.757187,-0.314203 0.845557,-0.1283248 -0.129467,-1.91980049 -0.855141,-0.0136197 -0.792514,-0.20965844 -1.595836,-0.95909987 0.141472,-1.0906418 1.787725,-0.5202089 0.819779,-5.257e-4 0.830314,0.2050054 0.614998,-1.8232338 -0.784832,-0.3398074 -0.651963,-0.4969877 -1.10733,-1.496785 0.54808,-0.9534866 1.850746,0.2035123 0.757609,0.3132464 0.6886365,0.507136 1.2659595,-1.4490832 -0.5950426,-0.61427 -0.41215,-0.7086535 -0.450233,-1.8065889 0.8712578,-0.671169 1.6319641,0.89625 0.5800598,0.579305 0.4421355,0.7320615 1.7241448,-0.8543265 -0.3146661,-0.795222 -0.1095918,-0.812443 0.2754107,-1.841384 1.0617839,-0.286663 1.1647576,1.452547 0.31421,0.757173 0.1283286,0.845542 1.9198366,-0.129462 0.0136186,-0.855124 0.20966114,-0.7925 0.95911536,-1.595803 1.0906626,0.141469 0.5202216,1.787692 5.243e-4,0.819764 -0.205008,0.830299 1.8232692,0.61499 0.3398125,-0.784818 0.4969961,-0.65195 1.4968116,-1.107307 0.9535053,0.548072 -0.2035132,1.85071 -0.313251,0.757595 -0.5071444,0.688623 1.4491124,1.2659379 0.6142807,-0.5950303 0.7086668,-0.4121411 1.8066225,-0.4502217 0.671183,0.8712423 -0.896265,1.631932 -0.579315,0.5800478 -0.7320743,0.4421262 0.8543453,1.7241136 0.795235,-0.314659 0.81246,-0.1095884 1.841419,0.2754085 0.286669,1.0617644 -1.452571,1.1647331 -0.757189,0.3142029 -0.845556,0.1283249 z"
         id="path44-3" />
      <circle
         style="fill:none;stroke:#000000;stroke-width:0.264583"
         id="path45-9"
         cx="0"
         cy="0"
         r="2.6458333" />
    </g>
    <g
       id="planet1">
      <path
         style="fill:none;stroke:#000000;stroke-width:0.264583"
         d="m 11.786781,-0.30413546 0.871476,-0.0224775 0.81603,0.17983917 1.666007,0.90895856 -0.09772,1.11677253 -1.798555,0.6057932 -0.834862,0.035378 -0.854328,-0.1734936 -0.548834,1.8830052 0.813738,0.3127153 0.685101,0.4784427 1.191354,1.477326 -0.517654,0.994371 L 11.285036,7.3638965 10.500151,7.077075 9.7772709,6.5898557 8.5495778,8.1194785 9.1816943,8.7197863 9.63156,9.4239925 10.166878,11.244768 9.3080946,11.96535 7.6079644,11.121936 6.992593,10.556601 6.5111942,9.8298302 4.7915931,10.773201 5.1458583,11.569715 5.2920024,12.392487 5.0897849,14.279542 4.020621,14.616625 2.7726609,13.186795 2.4204775,12.42901 l -0.166633,-0.855683 -1.94970904,0.213454 0.0224775,0.871476 -0.17983917,0.81603 -0.90895856,1.666007 -1.11677253,-0.09772 -0.6057932,-1.798555 -0.035378,-0.834862 0.1734936,-0.854328 -1.8830052,-0.548834 -0.3127153,0.813738 -0.4784427,0.685101 -1.477326,1.191354 -0.9943707,-0.517651 0.1285987,-1.893498 0.2868216,-0.784885 0.4872192,-0.7228801 -1.5296228,-1.2276931 -0.6003078,0.6321165 -0.7042062,0.4498657 -1.8207759,0.535318 -0.720582,-0.8587834 0.843414,-1.7001302 0.565335,-0.6153714 0.7267712,-0.4813988 -0.9433712,-1.7196011 -0.796514,0.3542652 -0.822772,0.1461441 -1.887055,-0.2022175 -0.337083,-1.0691639 1.42983,-1.2479601 0.757785,-0.3521834 0.855683,-0.166633 -0.213454,-1.94970904 -0.871476,0.0224775 -0.81603,-0.17983917 -1.666007,-0.90895856 0.09772,-1.11677263 1.798555,-0.6057932 0.834862,-0.035378 0.854328,0.1734936 0.548834,-1.8830053 -0.813738,-0.3127152 -0.685101,-0.4784427 -1.191354,-1.477326 0.517651,-0.9943707 1.893498,0.1285987 0.784885,0.2868215 0.7228805,0.4872193 1.2276931,-1.5296228 -0.6321165,-0.6003078 -0.4498657,-0.7042062 -0.5353184,-1.8207758 0.8587838,-0.720582 1.7001302,0.843414 0.6153714,0.565335 0.4813988,0.7267711 1.7196011,-0.9433711 -0.3542652,-0.796514 -0.1461441,-0.822772 0.2022175,-1.887055 1.0691639,-0.337083 1.2479601,1.42983 0.3521834,0.757785 0.166633,0.855683 1.94970909,-0.213454 -0.0224775,-0.871476 0.17983917,-0.81603 0.90895856,-1.666007 1.11677258,0.09772 0.6057932,1.798555 0.035378,0.834862 -0.1734936,0.854328 1.8830053,0.548834 0.3127152,-0.813738 0.4784427,-0.685101 1.477326,-1.191354 0.9943707,0.517651 -0.1285987,1.893498 -0.2868215,0.784885 -0.4872193,0.7228804 1.5296228,1.2276931 0.6003078,-0.6321165 0.7042062,-0.4498657 1.8207754,-0.5353183 0.720582,0.8587837 -0.843414,1.7001302 -0.565335,0.6153714 -0.7267707,0.4813988 0.9433707,1.7196011 0.796514,-0.3542652 0.822772,-0.1461441 1.887055,0.2022175 0.337083,1.0691639 -1.42983,1.2479601 -0.757785,0.3521834 -0.855683,0.166633 z"
         id="path44-2" />
      <circle
         style="fill:none;stroke:#000000;stroke-width:0.264583"
         id="path45-93"
         cx="0"
         cy="0"
         r="2.6458333" />
    </g>
  </g>
</svg>